<mxfile host="app.diagrams.net" modified="2024-03-01T15:39:46.458Z" agent="Mozilla/5.0 (Windows NT 10.0; Win64; x64; rv:123.0) Gecko/20100101 Firefox/123.0" etag="SfTI1LApwLxtYoKRqIgz" version="23.1.4" type="device">
  <diagram name="Page-1" id="dFmc4SeiALAdxSmlRPcr">
    <mxGraphModel dx="1195" dy="628" grid="1" gridSize="10" guides="1" tooltips="1" connect="1" arrows="1" fold="1" page="1" pageScale="1" pageWidth="827" pageHeight="1169" math="0" shadow="0">
      <root>
        <mxCell id="0" />
        <mxCell id="1" parent="0" />
        <mxCell id="OYaM7oI7Gwu251D2yHhQ-25" value="" style="shape=table;startSize=0;container=1;collapsible=0;childLayout=tableLayout;fontSize=15;align=center;fontFamily=Lucida Console;strokeWidth=1;fillColor=none;" vertex="1" parent="1">
          <mxGeometry x="19" y="520" width="661" height="180" as="geometry" />
        </mxCell>
        <mxCell id="OYaM7oI7Gwu251D2yHhQ-43" style="shape=tableRow;horizontal=0;startSize=0;swimlaneHead=0;swimlaneBody=0;strokeColor=inherit;top=0;left=0;bottom=0;right=0;collapsible=0;dropTarget=0;fillColor=none;points=[[0,0.5],[1,0.5]];portConstraint=eastwest;fontSize=15;fontFamily=Lucida Console;strokeWidth=2;" vertex="1" parent="OYaM7oI7Gwu251D2yHhQ-25">
          <mxGeometry width="661" height="60" as="geometry" />
        </mxCell>
        <mxCell id="OYaM7oI7Gwu251D2yHhQ-44" value="signal" style="shape=partialRectangle;html=1;whiteSpace=wrap;connectable=0;strokeColor=inherit;overflow=hidden;fillColor=none;top=0;left=0;bottom=0;right=0;pointerEvents=1;fontSize=15;fontFamily=Lucida Console;align=center;strokeWidth=2;" vertex="1" parent="OYaM7oI7Gwu251D2yHhQ-43">
          <mxGeometry width="241" height="60" as="geometry">
            <mxRectangle width="241" height="60" as="alternateBounds" />
          </mxGeometry>
        </mxCell>
        <mxCell id="OYaM7oI7Gwu251D2yHhQ-45" style="shape=partialRectangle;html=1;whiteSpace=wrap;connectable=0;strokeColor=inherit;overflow=hidden;fillColor=none;top=0;left=0;bottom=0;right=0;pointerEvents=1;fontSize=15;fontFamily=Lucida Console;align=center;strokeWidth=2;" vertex="1" parent="OYaM7oI7Gwu251D2yHhQ-43">
          <mxGeometry x="241" width="420" height="60" as="geometry">
            <mxRectangle width="420" height="60" as="alternateBounds" />
          </mxGeometry>
        </mxCell>
        <mxCell id="OYaM7oI7Gwu251D2yHhQ-26" value="" style="shape=tableRow;horizontal=0;startSize=0;swimlaneHead=0;swimlaneBody=0;strokeColor=inherit;top=0;left=0;bottom=0;right=0;collapsible=0;dropTarget=0;fillColor=none;points=[[0,0.5],[1,0.5]];portConstraint=eastwest;fontSize=15;fontFamily=Lucida Console;strokeWidth=2;" vertex="1" parent="OYaM7oI7Gwu251D2yHhQ-25">
          <mxGeometry y="60" width="661" height="60" as="geometry" />
        </mxCell>
        <mxCell id="OYaM7oI7Gwu251D2yHhQ-27" value="request" style="shape=partialRectangle;html=1;whiteSpace=wrap;connectable=0;strokeColor=inherit;overflow=hidden;fillColor=none;top=0;left=0;bottom=0;right=0;pointerEvents=1;fontSize=15;fontFamily=Lucida Console;align=center;strokeWidth=2;" vertex="1" parent="OYaM7oI7Gwu251D2yHhQ-26">
          <mxGeometry width="241" height="60" as="geometry">
            <mxRectangle width="241" height="60" as="alternateBounds" />
          </mxGeometry>
        </mxCell>
        <mxCell id="OYaM7oI7Gwu251D2yHhQ-28" value="" style="shape=partialRectangle;html=1;whiteSpace=wrap;connectable=0;strokeColor=inherit;overflow=hidden;fillColor=none;top=0;left=0;bottom=0;right=0;pointerEvents=1;fontSize=15;fontFamily=Lucida Console;align=center;strokeWidth=2;" vertex="1" parent="OYaM7oI7Gwu251D2yHhQ-26">
          <mxGeometry x="241" width="420" height="60" as="geometry">
            <mxRectangle width="420" height="60" as="alternateBounds" />
          </mxGeometry>
        </mxCell>
        <mxCell id="OYaM7oI7Gwu251D2yHhQ-30" value="" style="shape=tableRow;horizontal=0;startSize=0;swimlaneHead=0;swimlaneBody=0;strokeColor=inherit;top=0;left=0;bottom=0;right=0;collapsible=0;dropTarget=0;fillColor=none;points=[[0,0.5],[1,0.5]];portConstraint=eastwest;fontSize=15;fontFamily=Lucida Console;strokeWidth=2;" vertex="1" parent="OYaM7oI7Gwu251D2yHhQ-25">
          <mxGeometry y="120" width="661" height="60" as="geometry" />
        </mxCell>
        <mxCell id="OYaM7oI7Gwu251D2yHhQ-31" value="pull(signal) " style="shape=partialRectangle;html=1;whiteSpace=wrap;connectable=0;strokeColor=inherit;overflow=hidden;fillColor=none;top=0;left=0;bottom=0;right=0;pointerEvents=1;fontSize=15;fontFamily=Lucida Console;align=center;strokeWidth=2;" vertex="1" parent="OYaM7oI7Gwu251D2yHhQ-30">
          <mxGeometry width="241" height="60" as="geometry">
            <mxRectangle width="241" height="60" as="alternateBounds" />
          </mxGeometry>
        </mxCell>
        <mxCell id="OYaM7oI7Gwu251D2yHhQ-32" value="" style="shape=partialRectangle;html=1;whiteSpace=wrap;connectable=0;strokeColor=inherit;overflow=hidden;fillColor=none;top=0;left=0;bottom=0;right=0;pointerEvents=1;fontSize=15;fontFamily=Lucida Console;align=center;strokeWidth=2;" vertex="1" parent="OYaM7oI7Gwu251D2yHhQ-30">
          <mxGeometry x="241" width="420" height="60" as="geometry">
            <mxRectangle width="420" height="60" as="alternateBounds" />
          </mxGeometry>
        </mxCell>
        <mxCell id="OYaM7oI7Gwu251D2yHhQ-38" value="" style="group;fontFamily=Lucida Console;fontSize=15;strokeWidth=2;" vertex="1" connectable="0" parent="1">
          <mxGeometry x="270" y="650" width="400" height="40" as="geometry" />
        </mxCell>
        <mxCell id="OYaM7oI7Gwu251D2yHhQ-2" value="" style="endArrow=classic;html=1;rounded=0;endFill=1;fontFamily=Lucida Console;fontSize=15;strokeWidth=2;" edge="1" parent="OYaM7oI7Gwu251D2yHhQ-38">
          <mxGeometry width="50" height="50" relative="1" as="geometry">
            <mxPoint x="380" y="20" as="sourcePoint" />
            <mxPoint x="400" y="20" as="targetPoint" />
          </mxGeometry>
        </mxCell>
        <mxCell id="OYaM7oI7Gwu251D2yHhQ-16" value="" style="endArrow=none;html=1;rounded=0;endFill=0;fontFamily=Lucida Console;fontSize=15;strokeWidth=2;" edge="1" parent="OYaM7oI7Gwu251D2yHhQ-38">
          <mxGeometry width="50" height="50" relative="1" as="geometry">
            <mxPoint y="20" as="sourcePoint" />
            <mxPoint x="20" y="20" as="targetPoint" />
          </mxGeometry>
        </mxCell>
        <mxCell id="OYaM7oI7Gwu251D2yHhQ-21" value="" style="endArrow=none;html=1;rounded=0;endFill=0;fontFamily=Lucida Console;fontSize=15;strokeWidth=2;" edge="1" parent="OYaM7oI7Gwu251D2yHhQ-38">
          <mxGeometry width="50" height="50" relative="1" as="geometry">
            <mxPoint x="60" y="20" as="sourcePoint" />
            <mxPoint x="270" y="20" as="targetPoint" />
          </mxGeometry>
        </mxCell>
        <mxCell id="OYaM7oI7Gwu251D2yHhQ-20" value="" style="endArrow=none;html=1;rounded=0;endFill=0;fontFamily=Lucida Console;fontSize=15;strokeWidth=2;" edge="1" parent="OYaM7oI7Gwu251D2yHhQ-38">
          <mxGeometry width="50" height="50" relative="1" as="geometry">
            <mxPoint x="270" y="20" as="sourcePoint" />
            <mxPoint x="340" y="20" as="targetPoint" />
          </mxGeometry>
        </mxCell>
        <mxCell id="OYaM7oI7Gwu251D2yHhQ-83" value="2" style="ellipse;whiteSpace=wrap;html=1;aspect=fixed;fillColor=#d5e8d4;strokeColor=#82b366;strokeWidth=2;fontSize=15;fontFamily=Lucida Console;" vertex="1" parent="OYaM7oI7Gwu251D2yHhQ-38">
          <mxGeometry x="180" width="40" height="40" as="geometry" />
        </mxCell>
        <mxCell id="OYaM7oI7Gwu251D2yHhQ-94" value="1" style="ellipse;whiteSpace=wrap;html=1;aspect=fixed;fillColor=#dae8fc;strokeColor=#6c8ebf;strokeWidth=2;fontFamily=Lucida Console;fontSize=15;" vertex="1" parent="OYaM7oI7Gwu251D2yHhQ-38">
          <mxGeometry x="20" width="40" height="40" as="geometry" />
        </mxCell>
        <mxCell id="OYaM7oI7Gwu251D2yHhQ-95" value="2" style="ellipse;whiteSpace=wrap;html=1;aspect=fixed;fillColor=#d5e8d4;strokeColor=#82b366;strokeWidth=2;fontSize=15;fontFamily=Lucida Console;" vertex="1" parent="OYaM7oI7Gwu251D2yHhQ-38">
          <mxGeometry x="100" width="40" height="40" as="geometry" />
        </mxCell>
        <mxCell id="OYaM7oI7Gwu251D2yHhQ-97" value="2" style="ellipse;whiteSpace=wrap;html=1;aspect=fixed;fillColor=#d5e8d4;strokeColor=#82b366;strokeWidth=2;fontSize=15;fontFamily=Lucida Console;" vertex="1" parent="OYaM7oI7Gwu251D2yHhQ-38">
          <mxGeometry x="260" width="40" height="40" as="geometry" />
        </mxCell>
        <mxCell id="OYaM7oI7Gwu251D2yHhQ-46" value="" style="group;fontFamily=Lucida Console;fontSize=15;strokeWidth=2;" vertex="1" connectable="0" parent="1">
          <mxGeometry x="270" y="530" width="400" height="40" as="geometry" />
        </mxCell>
        <mxCell id="OYaM7oI7Gwu251D2yHhQ-47" value="" style="endArrow=classic;html=1;rounded=0;fontFamily=Lucida Console;fontSize=15;strokeWidth=2;" edge="1" parent="OYaM7oI7Gwu251D2yHhQ-46" source="OYaM7oI7Gwu251D2yHhQ-53">
          <mxGeometry width="50" height="50" relative="1" as="geometry">
            <mxPoint y="20" as="sourcePoint" />
            <mxPoint x="400" y="20" as="targetPoint" />
          </mxGeometry>
        </mxCell>
        <mxCell id="OYaM7oI7Gwu251D2yHhQ-48" value="" style="endArrow=none;html=1;rounded=0;endFill=0;fontFamily=Lucida Console;fontSize=15;strokeWidth=2;" edge="1" parent="OYaM7oI7Gwu251D2yHhQ-46">
          <mxGeometry width="50" height="50" relative="1" as="geometry">
            <mxPoint y="20" as="sourcePoint" />
            <mxPoint x="10" y="20" as="targetPoint" />
          </mxGeometry>
        </mxCell>
        <mxCell id="OYaM7oI7Gwu251D2yHhQ-52" value="" style="endArrow=none;html=1;rounded=0;endFill=0;fontFamily=Lucida Console;fontSize=15;strokeWidth=2;" edge="1" parent="OYaM7oI7Gwu251D2yHhQ-46" target="OYaM7oI7Gwu251D2yHhQ-53">
          <mxGeometry width="50" height="50" relative="1" as="geometry">
            <mxPoint x="110" y="20" as="sourcePoint" />
            <mxPoint x="400" y="20" as="targetPoint" />
          </mxGeometry>
        </mxCell>
        <mxCell id="OYaM7oI7Gwu251D2yHhQ-92" value="&lt;font style=&quot;font-size: 15px;&quot; face=&quot;Lucida Console&quot;&gt;1&lt;/font&gt;" style="rounded=1;whiteSpace=wrap;html=1;arcSize=50;fillColor=#dae8fc;strokeColor=#6c8ebf;strokeWidth=2;" vertex="1" parent="OYaM7oI7Gwu251D2yHhQ-46">
          <mxGeometry x="10" width="60" height="40" as="geometry" />
        </mxCell>
        <mxCell id="OYaM7oI7Gwu251D2yHhQ-93" value="&lt;font face=&quot;Lucida Console&quot;&gt;2&lt;/font&gt;" style="rounded=1;whiteSpace=wrap;html=1;arcSize=50;fillColor=#d5e8d4;strokeColor=#82b366;strokeWidth=2;" vertex="1" parent="OYaM7oI7Gwu251D2yHhQ-46">
          <mxGeometry x="70" width="270" height="40" as="geometry" />
        </mxCell>
        <mxCell id="OYaM7oI7Gwu251D2yHhQ-53" value="3" style="ellipse;whiteSpace=wrap;html=1;aspect=fixed;fillColor=#f8cecc;strokeColor=#b85450;fontSize=15;fontFamily=Lucida Console;strokeWidth=2;" vertex="1" parent="OYaM7oI7Gwu251D2yHhQ-46">
          <mxGeometry x="340" width="40" height="40" as="geometry" />
        </mxCell>
        <mxCell id="OYaM7oI7Gwu251D2yHhQ-81" value="" style="group" vertex="1" connectable="0" parent="1">
          <mxGeometry x="270" y="590" width="400" height="40" as="geometry" />
        </mxCell>
        <mxCell id="OYaM7oI7Gwu251D2yHhQ-65" value="" style="endArrow=classic;html=1;rounded=0;strokeWidth=2;endFill=1;" edge="1" parent="OYaM7oI7Gwu251D2yHhQ-81" source="OYaM7oI7Gwu251D2yHhQ-78">
          <mxGeometry width="50" height="50" relative="1" as="geometry">
            <mxPoint y="20" as="sourcePoint" />
            <mxPoint x="400" y="20" as="targetPoint" />
          </mxGeometry>
        </mxCell>
        <mxCell id="OYaM7oI7Gwu251D2yHhQ-68" value="" style="endArrow=none;html=1;rounded=0;strokeWidth=2;endFill=0;" edge="1" parent="OYaM7oI7Gwu251D2yHhQ-81" target="OYaM7oI7Gwu251D2yHhQ-63">
          <mxGeometry width="50" height="50" relative="1" as="geometry">
            <mxPoint y="20" as="sourcePoint" />
            <mxPoint x="400" y="20" as="targetPoint" />
          </mxGeometry>
        </mxCell>
        <mxCell id="OYaM7oI7Gwu251D2yHhQ-63" value="" style="rhombus;whiteSpace=wrap;html=1;fillColor=#f5f5f5;fontColor=#333333;strokeColor=#666666;strokeWidth=2;" vertex="1" parent="OYaM7oI7Gwu251D2yHhQ-81">
          <mxGeometry x="20" width="40" height="40" as="geometry" />
        </mxCell>
        <mxCell id="OYaM7oI7Gwu251D2yHhQ-71" value="" style="endArrow=none;html=1;rounded=0;strokeWidth=2;endFill=0;" edge="1" parent="OYaM7oI7Gwu251D2yHhQ-81" source="OYaM7oI7Gwu251D2yHhQ-63" target="OYaM7oI7Gwu251D2yHhQ-69">
          <mxGeometry width="50" height="50" relative="1" as="geometry">
            <mxPoint x="60" y="20" as="sourcePoint" />
            <mxPoint x="400" y="20" as="targetPoint" />
          </mxGeometry>
        </mxCell>
        <mxCell id="OYaM7oI7Gwu251D2yHhQ-69" value="" style="rhombus;whiteSpace=wrap;html=1;fillColor=#f5f5f5;fontColor=#333333;strokeColor=#666666;strokeWidth=2;" vertex="1" parent="OYaM7oI7Gwu251D2yHhQ-81">
          <mxGeometry x="100" width="40" height="40" as="geometry" />
        </mxCell>
        <mxCell id="OYaM7oI7Gwu251D2yHhQ-74" value="" style="endArrow=none;html=1;rounded=0;strokeWidth=2;endFill=0;" edge="1" parent="OYaM7oI7Gwu251D2yHhQ-81" source="OYaM7oI7Gwu251D2yHhQ-69" target="OYaM7oI7Gwu251D2yHhQ-72">
          <mxGeometry width="50" height="50" relative="1" as="geometry">
            <mxPoint x="140" y="20" as="sourcePoint" />
            <mxPoint x="400" y="20" as="targetPoint" />
          </mxGeometry>
        </mxCell>
        <mxCell id="OYaM7oI7Gwu251D2yHhQ-72" value="" style="rhombus;whiteSpace=wrap;html=1;fillColor=#f5f5f5;fontColor=#333333;strokeColor=#666666;strokeWidth=2;" vertex="1" parent="OYaM7oI7Gwu251D2yHhQ-81">
          <mxGeometry x="180" width="40" height="40" as="geometry" />
        </mxCell>
        <mxCell id="OYaM7oI7Gwu251D2yHhQ-78" value="" style="rhombus;whiteSpace=wrap;html=1;fillColor=#f5f5f5;fontColor=#333333;strokeColor=#666666;strokeWidth=2;" vertex="1" parent="OYaM7oI7Gwu251D2yHhQ-81">
          <mxGeometry x="340" width="40" height="40" as="geometry" />
        </mxCell>
        <mxCell id="OYaM7oI7Gwu251D2yHhQ-80" value="" style="endArrow=none;html=1;rounded=0;strokeWidth=2;endFill=0;" edge="1" parent="OYaM7oI7Gwu251D2yHhQ-81" source="OYaM7oI7Gwu251D2yHhQ-72" target="OYaM7oI7Gwu251D2yHhQ-75">
          <mxGeometry width="50" height="50" relative="1" as="geometry">
            <mxPoint x="220" y="20" as="sourcePoint" />
            <mxPoint x="340" y="20" as="targetPoint" />
          </mxGeometry>
        </mxCell>
        <mxCell id="OYaM7oI7Gwu251D2yHhQ-75" value="" style="rhombus;whiteSpace=wrap;html=1;fillColor=#f5f5f5;fontColor=#333333;strokeColor=#666666;strokeWidth=2;" vertex="1" parent="OYaM7oI7Gwu251D2yHhQ-81">
          <mxGeometry x="260" width="40" height="40" as="geometry" />
        </mxCell>
        <mxCell id="OYaM7oI7Gwu251D2yHhQ-79" value="" style="endArrow=none;html=1;rounded=0;strokeWidth=2;endFill=0;" edge="1" parent="OYaM7oI7Gwu251D2yHhQ-81" source="OYaM7oI7Gwu251D2yHhQ-75" target="OYaM7oI7Gwu251D2yHhQ-78">
          <mxGeometry width="50" height="50" relative="1" as="geometry">
            <mxPoint x="220" y="20" as="sourcePoint" />
            <mxPoint x="400" y="20" as="targetPoint" />
          </mxGeometry>
        </mxCell>
        <mxCell id="OYaM7oI7Gwu251D2yHhQ-98" value="3" style="ellipse;whiteSpace=wrap;html=1;aspect=fixed;fillColor=#f8cecc;strokeColor=#b85450;strokeWidth=2;fontSize=15;fontFamily=Lucida Console;" vertex="1" parent="1">
          <mxGeometry x="610" y="650" width="40" height="40" as="geometry" />
        </mxCell>
      </root>
    </mxGraphModel>
  </diagram>
</mxfile>
